<svg xmlns="http://www.w3.org/2000/svg" viewBox="0 0 202.94 58"><defs><style>.cls-1{fill:#fff;}</style></defs><g id="Layer_2" data-name="Layer 2"><g id="Layer_1-2" data-name="Layer 1"><path class="cls-1" d="M69.06,0c2.34,1.81,2.39,2,.41,4.27A77,77,0,0,1,56.13,16.88a12.77,12.77,0,0,1-7.08,2.71,15.47,15.47,0,0,0-8.77,3.35,8.06,8.06,0,0,1-4.77,1.7c-.4,0-.93.26-1.17-.17s.21-.7.39-1c1.91-3.44,5-5.33,8.62-6.5a10.7,10.7,0,0,0,1.74-.65c-4.69.45-8.56,2.25-10.9,6.59-.74,1.37-.77,1.36-1.61,0-1-1.61-1-2,.31-3.35,2.62-2.71,5.23-5.44,7.93-8.08,2.23-2.18,5.2-3.13,8-4.31C54.51,4.76,60.38,2.81,66.23.81A3.24,3.24,0,0,0,67.77,0Z"/><path class="cls-1" d="M34.35,29.59c4.33,1,6.95,3.77,8.72,7.49.2-.82-.23-1.95-1.37-3.55a10.7,10.7,0,0,0-3-2.94A18,18,0,0,0,34.9,29c1.29-2.17,2.1-2.42,4-1.2,2.61,1.66,5.16,3.39,7.77,5.05s4.09,4.24,5.72,6.68c3.3,4.91,6.17,10.08,9.13,15.19a2.18,2.18,0,0,1-.21,2.71,1.15,1.15,0,0,1-1.67.37c-5.83-3.16-11.38-6.72-16-11.52a7.71,7.71,0,0,1-2.06-3.63,15.4,15.4,0,0,0-4.88-8.13A7.47,7.47,0,0,1,34.35,29.59Z"/><path class="cls-1" d="M22.91,19.62a10.36,10.36,0,0,0,6.37,4.83c.42.12,1.46-.15,1.19.64s-.77,1.72-1.89,1.65a3.08,3.08,0,0,1-1.2-.42c-2.7-1.41-5.38-2.84-8.09-4.25a14.41,14.41,0,0,1-3.94-3.64c-4.18-4.78-7.81-10-11.58-15.09a2,2,0,0,1-.1-2.28C4,.44,4.4.14,5.12.45,11,3,16.7,5.88,21.46,10.29a4.92,4.92,0,0,1,1.25,1.91,16.18,16.18,0,0,0,5.66,7.64,6.93,6.93,0,0,1,2.34,3.31c.33.84.07,1-.72.79a11,11,0,0,1-5.94-3.63C23.78,20,23.63,19.42,22.91,19.62Z"/><path class="cls-1" d="M20.69,35.75a12,12,0,0,0,8.37-3.45A9.17,9.17,0,0,0,30.69,30c.31-.62.53-.8,1-.13,1.14,1.49,1.18,1.82-.14,3.15-2.11,2.14-4.25,4.24-6.38,6.36a15.15,15.15,0,0,1-4.89,2.78c-5.71,2.51-11.65,4.4-17.53,6.45a2,2,0,0,1-2.16-.36,1.17,1.17,0,0,1-.19-1.94A61.53,61.53,0,0,1,13,34.76a9.26,9.26,0,0,1,4.66-1.65,14.35,14.35,0,0,0,7.87-2.9,7.45,7.45,0,0,1,4.08-1.4c.85-.06,1,.18.57.92A11.06,11.06,0,0,1,25,34.25,36.94,36.94,0,0,1,20.69,35.75Z"/><path class="cls-1" d="M65.5,40.08h2c1.56,0,2.24.93,2.24,2.45s-.76,2.56-2.25,2.56h-2Zm1.71,3.79h.16c.49,0,.63-.21.63-1.31s-.14-1.27-.6-1.27h-.19Z"/><path class="cls-1" d="M71.85,43.35v1.74H70.2v-5h2.38c1.24,0,1.64.77,1.64,1.38a1.19,1.19,0,0,1-.71,1.2,1.13,1.13,0,0,1,.65,1.21v.19a6,6,0,0,0,0,1H72.57a3.37,3.37,0,0,1-.1-1V44c0-.49-.11-.6-.46-.6Zm0-1.18h.28c.32,0,.41-.23.41-.48s-.12-.45-.41-.45h-.28Z"/><path class="cls-1" d="M79.11,42.55c0,1.51-.6,2.67-2.35,2.67-1.56,0-2.24-1.09-2.24-2.66S75.2,40,76.84,40,79.11,41.14,79.11,42.55Zm-2.81,0c0,1,.1,1.44.52,1.44s.51-.45.51-1.47-.08-1.3-.52-1.3S76.3,41.6,76.3,42.54Z"/><path class="cls-1" d="M79.53,45.09v-5h2c.44,1.8.61,2.52.64,2.67h0c0-.59-.08-1.52-.08-2.22v-.45h1.57v5H81.77l-.7-2.79h0c0,.63,0,1.46,0,2.28v.51Z"/><path class="cls-1" d="M87.66,43.19H85.85v.63H87.9l-.18,1.27H84.23v-5h3.5v1.28H85.85v.55h1.81Z"/><path class="cls-1" d="M89.3,40.08h2c1.56,0,2.24.93,2.24,2.45s-.76,2.56-2.25,2.56h-2ZM91,43.87h.16c.49,0,.63-.21.63-1.31s-.14-1.27-.6-1.27H91Z"/><path class="cls-1" d="M97.43,43.19H95.62v.63h2l-.18,1.27H94v-5h3.5v1.28H95.62v.55h1.81Z"/><path class="cls-1" d="M99,45.09l-1.25-5h1.77c.11.58.21,1.29.31,1.87s.16,1.07.23,1.64h0c.08-.64.15-1.08.26-1.63s.22-1.3.34-1.88h1.73l-1.4,5Z"/><path class="cls-1" d="M106,43.19h-1.81v.63h2l-.18,1.27h-3.5v-5h3.51v1.28h-1.88v.55H106Z"/><path class="cls-1" d="M106.6,40.08h1.71v3.71h1.79l-.17,1.3H106.6Z"/><path class="cls-1" d="M114.79,42.55c0,1.51-.6,2.67-2.35,2.67-1.56,0-2.24-1.09-2.24-2.66s.68-2.61,2.32-2.61S114.79,41.14,114.79,42.55Zm-2.81,0c0,1,.1,1.44.52,1.44s.51-.45.51-1.47-.08-1.3-.51-1.3S112,41.6,112,42.54Z"/><path class="cls-1" d="M115.21,40.08h2.21a1.68,1.68,0,1,1-.06,3.35h-.5v1.66h-1.65Zm1.65,2.13h.26c.31,0,.4-.19.4-.49s-.11-.45-.41-.45h-.25Z"/><path class="cls-1" d="M123.11,43.81c0-.67,0-1.79,0-2.42h0c-.12,1.11-.27,2.61-.41,3.7h-1.27c-.13-1.33-.25-2.44-.37-3.67H121c0,.58.05,1.51.05,2.37v1.3h-1.48v-5h2.35c0,.55.16,1.86.19,2.51h.06c.11-1,.14-1.63.26-2.51h2.31v5h-1.62Z"/><path class="cls-1" d="M128.74,43.19h-1.81v.63h2l-.18,1.27h-3.49v-5h3.5v1.28h-1.88v.55h1.81Z"/><path class="cls-1" d="M129.31,45.09v-5h1.95c.45,1.8.61,2.52.65,2.67h0c0-.59-.08-1.52-.08-2.22v-.45h1.57v5h-1.89c-.51-2.08-.64-2.59-.69-2.79h0c0,.63,0,1.46,0,2.28v.51Z"/><path class="cls-1" d="M134.85,41.36h-1.1V40.08h3.89v1.28h-1.09v3.73h-1.7Z"/><path class="cls-1" d="M144,42l-1.24,1.82c-.64.93-1,1.39-2.18,1.39a1.51,1.51,0,0,1-1.72-1.52c0-.67.25-1,1.56-1.64.72-.34.8-.52.8-.78S141.17,41,141,41s-.2.11-.2.27a.79.79,0,0,0,.24.49l3.12,3.34h-1.85l-2.52-2.64a1.62,1.62,0,0,1-.43-1.07c0-.72.45-1.41,1.61-1.41,1,0,1.58.5,1.58,1.24s-.32,1-1.43,1.54c-.67.31-.83.44-.83.77a.49.49,0,0,0,.52.51c.45,0,.69-.46,1-.89l.78-1.15Z"/><path class="cls-1" d="M147.06,43.35v1.74h-1.65v-5h2.39c1.23,0,1.63.77,1.63,1.38a1.2,1.2,0,0,1-.7,1.2,1.14,1.14,0,0,1,.64,1.21v.19a6,6,0,0,0,0,1h-1.63a3.37,3.37,0,0,1-.1-1V44c0-.49-.11-.6-.45-.6Zm0-1.18h.29c.31,0,.41-.23.41-.48s-.13-.45-.42-.45h-.28Z"/><path class="cls-1" d="M153.32,43.19h-1.8v.63h2l-.18,1.27h-3.49v-5h3.5v1.28h-1.87v.55h1.8Z"/><path class="cls-1" d="M155.31,43.49c0,.4.2.57.5.57s.37-.11.37-.33-.16-.37-.77-.55c-1.23-.37-1.54-.92-1.54-1.58,0-1.1.83-1.65,1.93-1.65s1.93.55,2,1.66h-1.55c0-.27-.12-.51-.4-.51a.28.28,0,0,0-.32.27c0,.23.16.32.74.5,1.25.38,1.63.85,1.63,1.67,0,1.22-.94,1.68-2.09,1.68a1.8,1.8,0,0,1-2-1.73Z"/><path class="cls-1" d="M161.68,43.19h-1.81v.63h2l-.17,1.27h-3.5v-5h3.51v1.28h-1.88v.55h1.81Z"/><path class="cls-1" d="M163.86,44.26l-.11.83h-1.67l1.09-5h2.38l1.13,5h-1.76l-.13-.83Zm.7-1.37c-.05-.39-.15-1.14-.23-1.71h0c-.06.55-.14,1.17-.22,1.71Z"/><path class="cls-1" d="M168.57,43.35v1.74h-1.65v-5h2.39c1.23,0,1.63.77,1.63,1.38a1.2,1.2,0,0,1-.7,1.2,1.14,1.14,0,0,1,.64,1.21v.19a6,6,0,0,0,0,1h-1.63a3.37,3.37,0,0,1-.1-1V44c0-.49-.11-.6-.45-.6Zm0-1.18h.29c.31,0,.41-.23.41-.48s-.13-.45-.42-.45h-.28Z"/><path class="cls-1" d="M175.58,43.32a1.92,1.92,0,0,1-2.15,1.9c-1.69,0-2.19-1.22-2.19-2.62s.62-2.65,2.24-2.65a1.88,1.88,0,0,1,2.09,1.86h-1.69c0-.39-.12-.61-.39-.61s-.46.38-.46,1.4.12,1.36.44,1.36.39-.28.42-.64Z"/><path class="cls-1" d="M176,40.08h1.71V41.8h.72V40.08h1.72v5h-1.72V43.17h-.72v1.92H176Z"/><path class="cls-1" d="M64.72,20.18h6.2c4.71,0,6.79,2.79,6.79,7.34,0,4.72-2.32,7.7-6.83,7.7H64.72ZM69.9,31.56h.5c1.49,0,1.89-.64,1.89-3.95s-.4-3.79-1.81-3.79H69.9Z"/><path class="cls-1" d="M94.23,25.9l-3.79,5.48c-1.91,2.76-3,4.14-6.6,4.14-3.4,0-5.21-1.88-5.21-4.53,0-2,.74-3,4.73-4.93,2.17-1,2.41-1.56,2.41-2.33,0-.52-.26-.83-.66-.83s-.6.35-.6.81a2.34,2.34,0,0,0,.74,1.49l9.44,10h-5.6l-7.62-7.91a4.9,4.9,0,0,1-1.31-3.23c0-2.16,1.35-4.22,4.87-4.22,3,0,4.79,1.51,4.79,3.72,0,1.91-1,3.07-4.35,4.6-2,.94-2.49,1.34-2.49,2.32A1.46,1.46,0,0,0,84.55,32c1.34,0,2.09-1.36,3-2.66l2.36-3.46Z"/><path class="cls-1" d="M100.3,30v5.24h-5v-15h7.23c3.74,0,4.95,2.3,4.95,4.15a3.54,3.54,0,0,1-2.14,3.59c1.59.61,2,2.08,2,3.64v.54a19.41,19.41,0,0,0,.13,3.12h-5a10.88,10.88,0,0,1-.28-3v-.43c0-1.47-.34-1.8-1.39-1.8Zm0-3.53h.87c.94,0,1.24-.68,1.24-1.42s-.38-1.36-1.26-1.36h-.85Z"/><path class="cls-1" d="M112,20.18h10.51V24H117v1.9h5.07v3.86H117v5.46H112Z"/><path class="cls-1" d="M127.4,32.72l-.34,2.5H122l3.32-15h7.23l3.42,15h-5.34l-.4-2.5Zm2.12-4.12c-.14-1.16-.47-3.4-.69-5.13h-.12c-.2,1.67-.42,3.53-.66,5.13Z"/><path class="cls-1" d="M149.06,29.89c-.41,3.68-2.44,5.72-6.52,5.72-5.12,0-6.65-3.68-6.65-7.87s1.88-7.95,6.81-7.95S148.9,23,149,25.38H143.9c-.08-1.19-.38-1.84-1.18-1.84-1,0-1.41,1.14-1.41,4.2,0,2.81.38,4.08,1.35,4.08s1.18-.83,1.28-1.93Z"/><path class="cls-1" d="M152.84,24h-3.36V20.18h11.81V24H158v11.2h-5.15Z"/><path class="cls-1" d="M175.56,27.59c0,4.51-1.83,8-7.13,8-4.73,0-6.8-3.29-6.8-8,0-4.4,2.07-7.84,7-7.84S175.56,23.36,175.56,27.59Zm-8.52,0c0,2.89.29,4.31,1.57,4.31s1.53-1.33,1.53-4.38c0-2.72-.24-3.92-1.55-3.92S167,24.74,167,27.55Z"/><path class="cls-1" d="M181.81,30v5.24h-5v-15h7.23c3.74,0,4.95,2.3,4.95,4.15a3.54,3.54,0,0,1-2.14,3.59c1.59.61,2,2.08,2,3.64v.54a19.63,19.63,0,0,0,.12,3.12H184a10.79,10.79,0,0,1-.29-3v-.43c0-1.47-.34-1.8-1.38-1.8Zm0-3.53h.87c.94,0,1.25-.68,1.25-1.42s-.39-1.36-1.27-1.36h-.85Z"/><path class="cls-1" d="M193.2,35.22v-5a1.38,1.38,0,0,0-.14-.74l-4.27-9.34h5.78c.52,2,1.09,4,1.49,5.79.56-2,1.15-4.25,1.55-5.79h5.33l-4.43,9.4a2.33,2.33,0,0,0-.12.71v4.93Z"/></g></g></svg>