<svg width="72" height="72" viewBox="0 0 72 72" fill="none" xmlns="http://www.w3.org/2000/svg">
<rect x="1.5" y="1.5" width="69" height="69" rx="34.5" stroke="black" stroke-opacity="0.5" stroke-width="3"/>
<path fill-rule="evenodd" clip-rule="evenodd" d="M36 3C17.7746 3 3 17.7746 3 36C3 54.2254 17.7746 69 36 69C54.2254 69 69 54.2254 69 36C69 17.7746 54.2254 3 36 3ZM38.0048 24.45C38.0048 23.3454 37.1094 22.45 36.0048 22.45C34.9002 22.45 34.0048 23.3454 34.0048 24.45V34.2205C34.0048 35.325 34.9002 36.2205 36.0048 36.2205C37.1094 36.2205 38.0048 35.325 38.0048 34.2205V24.45ZM30.1277 28.4781C30.9984 27.7985 31.1534 26.5417 30.4737 25.6709C29.7941 24.8002 28.5373 24.6453 27.6666 25.3249C25.4426 27.0607 23.816 29.4474 23.0139 32.152C22.2117 34.8566 22.2741 37.744 23.1923 40.4114C24.1105 43.0789 25.8387 45.3931 28.1355 47.0313C30.4324 48.6695 33.1835 49.55 36.0048 49.55C38.8262 49.55 41.5772 48.6695 43.8741 47.0313C46.171 45.3931 47.8991 43.0789 48.8173 40.4114C49.7355 37.744 49.7979 34.8566 48.9958 32.152C48.1937 29.4474 46.5671 27.0607 44.3431 25.3249C43.4723 24.6453 42.2155 24.8002 41.5359 25.6709C40.8563 26.5417 41.0112 27.7985 41.8819 28.4781C43.4494 29.7015 44.5956 31.3835 45.1609 33.2894C45.7261 35.1952 45.6821 37.2299 45.0351 39.1095C44.3881 40.9892 43.1703 42.6201 41.5514 43.7748C39.9326 44.9294 37.9935 45.55 36.0048 45.55C34.0161 45.55 32.0771 44.9294 30.4582 43.7748C28.8394 42.6201 27.6215 40.9892 26.9745 39.1095C26.3275 37.2299 26.2835 35.1952 26.8488 33.2894C27.414 31.3835 28.5603 29.7015 30.1277 28.4781Z" fill="white"/>
</svg>
