<svg width="52" height="52" viewBox="0 0 52 52" fill="none" xmlns="http://www.w3.org/2000/svg">
<path d="M43.5796 22.5485C43.0451 22.3564 42.5566 22.0551 42.1451 21.6636C41.7336 21.2722 41.4083 20.7992 41.1899 20.275C40.9715 19.7508 40.8647 19.1868 40.8765 18.619C40.8883 18.0512 41.0183 17.4921 41.2583 16.9773C41.619 16.2158 41.7354 15.3614 41.5916 14.5311C41.4477 13.7009 41.0507 12.9354 40.4549 12.3396C39.8591 11.7437 39.0936 11.3467 38.2633 11.2029C37.4331 11.0591 36.5786 11.1755 35.8171 11.5362C35.3026 11.7776 34.7433 11.9088 34.1751 11.9213C33.6069 11.9338 33.0423 11.8273 32.5177 11.6087C31.9931 11.3901 31.52 11.0642 31.1287 10.652C30.7375 10.2397 30.4368 9.75022 30.246 9.21488C29.9631 8.42048 29.4413 7.73309 28.7522 7.24701C28.0631 6.76094 27.2405 6.5 26.3972 6.5C25.554 6.5 24.7313 6.76094 24.0423 7.24701C23.3532 7.73309 22.8314 8.42048 22.5485 9.21488C22.3564 9.74934 22.0551 10.2379 21.6636 10.6494C21.2722 11.0608 20.7992 11.3861 20.275 11.6046C19.7508 11.823 19.1868 11.9297 18.619 11.918C18.0512 11.9062 17.4921 11.7762 16.9773 11.5362C16.2158 11.1755 15.3614 11.0591 14.5311 11.2029C13.7009 11.3467 12.9354 11.7437 12.3396 12.3396C11.7437 12.9354 11.3467 13.7009 11.2029 14.5311C11.0591 15.3614 11.1755 16.2158 11.5362 16.9773C11.7762 17.4921 11.9062 18.0512 11.918 18.619C11.9297 19.1868 11.823 19.7508 11.6046 20.275C11.3861 20.7992 11.0608 21.2722 10.6494 21.6636C10.2379 22.0551 9.74934 22.3564 9.21488 22.5485C8.42048 22.8314 7.73309 23.3532 7.24701 24.0423C6.76094 24.7313 6.5 25.554 6.5 26.3972C6.5 27.2405 6.76094 28.0631 7.24701 28.7522C7.73309 29.4413 8.42048 29.9631 9.21488 30.246C9.75022 30.4368 10.2397 30.7375 10.652 31.1287C11.0642 31.52 11.3901 31.9931 11.6087 32.5177C11.8273 33.0423 11.9338 33.6069 11.9213 34.1751C11.9088 34.7433 11.7776 35.3026 11.5362 35.8171C11.1755 36.5786 11.0591 37.4331 11.2029 38.2633C11.3467 39.0936 11.7437 39.8591 12.3396 40.4549C12.9354 41.0507 13.7009 41.4477 14.5311 41.5916C15.3614 41.7354 16.2158 41.619 16.9773 41.2583C17.4921 41.0183 18.0512 40.8883 18.619 40.8765C19.1868 40.8647 19.7508 40.9715 20.275 41.1899C20.7992 41.4083 21.2722 41.7336 21.6636 42.1451C22.0551 42.5566 22.3564 43.0451 22.5485 43.5796C22.8314 44.374 23.3532 45.0614 24.0423 45.5474C24.7313 46.0335 25.554 46.2944 26.3972 46.2944C27.2405 46.2944 28.0631 46.0335 28.7522 45.5474C29.4413 45.0614 29.9631 44.374 30.246 43.5796C30.4368 43.0442 30.7375 42.5547 31.1287 42.1425C31.52 41.7302 31.9931 41.4043 32.5177 41.1857C33.0423 40.9671 33.6069 40.8607 34.1751 40.8731C34.7433 40.8856 35.3026 41.0168 35.8171 41.2583C36.5786 41.619 37.4331 41.7354 38.2633 41.5916C39.0936 41.4477 39.8591 41.0507 40.4549 40.4549C41.0507 39.8591 41.4477 39.0936 41.5916 38.2633C41.7354 37.4331 41.619 36.5786 41.2583 35.8171C41.0168 35.3026 40.8856 34.7433 40.8731 34.1751C40.8607 33.6069 40.9671 33.0423 41.1857 32.5177C41.4043 31.9931 41.7302 31.52 42.1425 31.1287C42.5547 30.7375 43.0442 30.4368 43.5796 30.246C44.374 29.9631 45.0614 29.4413 45.5474 28.7522C46.0335 28.0631 46.2944 27.2405 46.2944 26.3972C46.2944 25.554 46.0335 24.7313 45.5474 24.0423C45.0614 23.3532 44.374 22.8314 43.5796 22.5485ZM26.3647 36.0214C24.4603 36.0214 22.5987 35.4567 21.0153 34.3986C19.4318 33.3406 18.1977 31.8368 17.4689 30.0774C16.7401 28.3179 16.5494 26.3819 16.9209 24.5141C17.2925 22.6463 18.2095 20.9306 19.5561 19.584C20.9027 18.2374 22.6184 17.3203 24.4862 16.9488C26.354 16.5773 28.2901 16.768 30.0495 17.4967C31.8089 18.2255 33.3128 19.4597 34.3708 21.0431C35.4288 22.6266 35.9935 24.4882 35.9935 26.3926C35.9935 28.9463 34.9791 31.3954 33.1733 33.2012C31.3676 35.0069 28.9184 36.0214 26.3647 36.0214Z" fill="white"/>
</svg>
