<svg width="52" height="52" viewBox="0 0 52 52" fill="none" xmlns="http://www.w3.org/2000/svg">
<path d="M46.0367 8.66602H5.96207C4.73618 8.66602 3.5605 9.153 2.69366 10.0198C1.82683 10.8867 1.33984 12.0623 1.33984 13.2882V34.8625C1.33984 36.0883 1.82683 37.264 2.69366 38.1309C3.5605 38.9977 4.73618 39.4847 5.96207 39.4847H23.2261L19.0776 44.6847C18.4998 45.4127 19.0776 46.3833 20.2332 46.3833H31.9043C32.9558 46.3833 33.603 45.4127 33.0598 44.6847L28.8883 39.4731H46.0367C47.2626 39.4731 48.4383 38.9861 49.3051 38.1193C50.172 37.2525 50.659 36.0768 50.659 34.8509V13.2767C50.6559 12.0528 50.1676 10.8801 49.3011 10.0157C48.4346 9.15141 47.2606 8.66601 46.0367 8.66602V8.66602ZM46.5914 33.0945C46.5914 33.7074 46.3479 34.2952 45.9145 34.7287C45.4811 35.1621 44.8932 35.4056 44.2803 35.4056H7.73007C7.11712 35.4056 6.52928 35.1621 6.09586 34.7287C5.66245 34.2952 5.41895 33.7074 5.41895 33.0945V15.0216C5.41895 14.4086 5.66245 13.8208 6.09586 13.3874C6.52928 12.954 7.11712 12.7105 7.73007 12.7105H44.2687C44.8817 12.7105 45.4695 12.954 45.9029 13.3874C46.3363 13.8208 46.5798 14.4086 46.5798 15.0216L46.5914 33.0945Z" fill="white"/>
<path d="M26.2081 20.3379C25.1586 20.3356 24.132 20.6447 23.2583 21.2262C22.3845 21.8076 21.7029 22.6352 21.2996 23.6041C20.8964 24.5731 20.7897 25.6399 20.9931 26.6696C21.1964 27.6992 21.7007 28.6454 22.442 29.3883C23.1833 30.1312 24.1284 30.6375 25.1576 30.8431C26.1868 31.0487 27.2538 30.9444 28.2237 30.5433C29.1935 30.1421 30.0226 29.4623 30.6059 28.5898C31.1892 27.7174 31.5006 26.6914 31.5006 25.6419C31.4975 24.2381 30.9393 22.8925 29.9478 21.8988C28.9563 20.9051 27.6119 20.344 26.2081 20.3379ZM26.2081 28.5077C25.6413 28.5077 25.0873 28.3396 24.616 28.0247C24.1447 27.7098 23.7774 27.2622 23.5605 26.7386C23.3436 26.2149 23.2868 25.6387 23.3974 25.0828C23.508 24.5269 23.7809 24.0163 24.1817 23.6155C24.5825 23.2147 25.0931 22.9418 25.6491 22.8312C26.205 22.7206 26.7812 22.7774 27.3048 22.9943C27.8285 23.2112 28.276 23.5785 28.5909 24.0498C28.9058 24.521 29.0739 25.0751 29.0739 25.6419C29.0739 26.402 28.772 27.1309 28.2345 27.6683C27.6971 28.2058 26.9682 28.5077 26.2081 28.5077V28.5077Z" fill="white"/>
<path d="M26.2083 16.3164C21.1816 16.3164 16.5132 19.1013 13.035 24.1395C12.8988 24.343 12.8262 24.5823 12.8262 24.8271C12.8262 25.0719 12.8988 25.3112 13.035 25.5146C13.7759 26.592 14.6112 27.6013 15.531 28.5306C15.7593 28.759 16.069 28.8872 16.3919 28.8872C16.7148 28.8872 17.0244 28.759 17.2527 28.5306C17.4811 28.3023 17.6093 27.9926 17.6093 27.6697C17.6093 27.3468 17.4811 27.0372 17.2527 26.8089C16.6378 26.1904 16.0664 25.5302 15.5425 24.8329C18.4776 20.904 22.2332 18.7546 26.2083 18.7546C30.1834 18.7546 33.9274 20.904 36.8625 24.8329C36.3387 25.5302 35.7672 26.1904 35.1523 26.8089C34.9258 27.0381 34.7987 27.3474 34.7987 27.6697C34.7987 27.992 34.9258 28.3014 35.1523 28.5306C35.385 28.7561 35.695 28.8843 36.019 28.8889C36.3402 28.8873 36.6477 28.7585 36.8741 28.5306C37.7939 27.6013 38.6292 26.592 39.3701 25.5146C39.5062 25.3112 39.5789 25.0719 39.5789 24.8271C39.5789 24.5823 39.5062 24.343 39.3701 24.1395C35.9034 19.1013 31.2003 16.3164 26.2083 16.3164Z" fill="white"/>
</svg>
