<svg width="72" height="72" viewBox="0 0 72 72" fill="none" xmlns="http://www.w3.org/2000/svg">
<path d="M44.5292 70.496C44.2614 70.4949 43.9959 70.4462 43.7452 70.352L26.4972 64L6.67317 69.424C6.31967 69.5247 5.94671 69.5363 5.58766 69.4576C5.22861 69.3789 4.89467 69.2124 4.61569 68.973C4.33672 68.7337 4.12143 68.4289 3.98906 68.086C3.85669 67.7431 3.81138 67.3727 3.85717 67.008L7.71317 33.6C7.75985 33.1594 7.93708 32.7427 8.22216 32.4035C8.50723 32.0642 8.88715 31.8179 9.31317 31.696L14.4012 30.24C14.974 30.0809 15.5867 30.1559 16.1043 30.4484C16.6219 30.741 17.002 31.2272 17.1612 31.8C17.3203 32.3729 17.2453 32.9855 16.9528 33.5031C16.6602 34.0207 16.174 34.4009 15.6012 34.56L12.0172 35.552L8.67317 64.224L26.0012 59.424C26.4527 59.2716 26.9417 59.2716 27.3932 59.424L44.5932 65.824L59.8412 61.024L63.1372 32.416L58.2412 34.016C57.6798 34.1764 57.078 34.1113 56.564 33.8346C56.0499 33.5579 55.6642 33.0914 55.489 32.5345C55.3138 31.9776 55.363 31.3743 55.626 30.8531C55.889 30.3318 56.3451 29.9339 56.8972 29.744L65.0892 27.2C65.4447 27.0843 65.8237 27.0601 66.1911 27.1296C66.5584 27.1991 66.9023 27.3601 67.191 27.5978C67.4797 27.8354 67.7038 28.142 67.8426 28.4891C67.9814 28.8363 68.0304 29.2129 67.9852 29.584L64.1292 63.056C64.0745 63.4902 63.8939 63.8989 63.6095 64.2316C63.3252 64.5643 62.9496 64.8064 62.5292 64.928L45.2012 70.4C44.9832 70.4655 44.7567 70.4979 44.5292 70.496V70.496Z" fill="white"/>
<path d="M35.7597 53.2482L41.9677 45.4242L46.9277 39.1522C47.4717 38.4642 46.7997 37.5522 45.6957 37.5522L35.7597 41.9362L25.8237 37.6002C24.7357 37.6002 24.0477 38.4642 24.5917 39.2002L29.5677 45.4722L35.7597 53.2482Z" fill="white"/>
<path d="M42.912 28.0965C42.6715 28.0922 42.4421 27.9947 42.272 27.8245L38.272 23.8245C38.104 23.6539 38.0098 23.424 38.0098 23.1845C38.0098 22.945 38.104 22.7151 38.272 22.5445C38.4419 22.3812 38.6684 22.29 38.904 22.29C39.1397 22.29 39.3662 22.3812 39.536 22.5445L43.552 26.5605C43.6952 26.6847 43.7962 26.8504 43.8408 27.0346C43.8855 27.2187 43.8717 27.4123 43.8013 27.5882C43.7309 27.7642 43.6074 27.9139 43.4481 28.0164C43.2887 28.119 43.1014 28.1694 42.912 28.1605V28.0965Z" fill="white"/>
<path d="M45.4238 21.0713H39.9038C39.6662 21.0713 39.4383 20.9769 39.2702 20.8089C39.1022 20.6408 39.0078 20.4129 39.0078 20.1753C39.0078 19.9377 39.1022 19.7098 39.2702 19.5417C39.4383 19.3737 39.6662 19.2793 39.9038 19.2793H45.4238C45.6614 19.2793 45.8893 19.3737 46.0574 19.5417C46.2254 19.7098 46.3198 19.9377 46.3198 20.1753C46.3198 20.4129 46.2254 20.6408 46.0574 20.8089C45.8893 20.9769 45.6614 21.0713 45.4238 21.0713V21.0713Z" fill="white"/>
<path d="M38.8966 18.0639C38.7807 18.0652 38.6658 18.0433 38.5586 17.9993C38.4514 17.9553 38.3541 17.8902 38.2726 17.8079C38.1055 17.64 38.0117 17.4128 38.0117 17.1759C38.0117 16.939 38.1055 16.7118 38.2726 16.5439L42.2726 12.5279C42.4432 12.3598 42.6731 12.2656 42.9126 12.2656C43.1521 12.2656 43.382 12.3598 43.5526 12.5279C43.7159 12.6978 43.8071 12.9243 43.8071 13.1599C43.8071 13.3955 43.7159 13.622 43.5526 13.7919L39.5366 17.8079C39.4526 17.8914 39.3527 17.9572 39.2427 18.0012C39.1327 18.0452 39.015 18.0665 38.8966 18.0639Z" fill="white"/>
<path d="M35.8882 30.5924C35.6506 30.5924 35.4226 30.498 35.2546 30.33C35.0866 30.1619 34.9922 29.934 34.9922 29.6964V24.1924C34.9922 23.9548 35.0866 23.7269 35.2546 23.5588C35.4226 23.3908 35.6506 23.2964 35.8882 23.2964C36.1258 23.2964 36.3537 23.3908 36.5218 23.5588C36.6898 23.7269 36.7842 23.9548 36.7842 24.1924V29.6964C36.7842 29.814 36.761 29.9306 36.716 30.0393C36.671 30.148 36.605 30.2468 36.5218 30.33C36.4386 30.4132 36.3398 30.4792 36.2311 30.5242C36.1224 30.5692 36.0059 30.5924 35.8882 30.5924V30.5924Z" fill="white"/>
<path d="M35.8882 17.0563C35.6533 17.0563 35.4278 16.9641 35.2602 16.7995C35.0926 16.6349 34.9964 16.4111 34.9922 16.1763V10.6563C34.9922 10.4186 35.0866 10.1907 35.2546 10.0227C35.4226 9.85465 35.6506 9.76025 35.8882 9.76025C36.1258 9.76025 36.3537 9.85465 36.5218 10.0227C36.6898 10.1907 36.7842 10.4186 36.7842 10.6563V16.1763C36.78 16.4111 36.6837 16.6349 36.5162 16.7995C36.3486 16.9641 36.1231 17.0563 35.8882 17.0563V17.0563Z" fill="white"/>
<path d="M32.8965 18.0641C32.7781 18.0667 32.6604 18.0454 32.5504 18.0014C32.4404 17.9574 32.3405 17.8917 32.2565 17.8081L28.8005 14.2881C28.6519 14.1169 28.5736 13.8958 28.5816 13.6692C28.5896 13.4426 28.6832 13.2274 28.8435 13.0671C29.0038 12.9068 29.2189 12.8132 29.4455 12.8052C29.6721 12.7973 29.8933 12.8755 30.0645 13.0241L33.6005 16.5441C33.7676 16.712 33.8614 16.9393 33.8614 17.1761C33.8614 17.413 33.7676 17.6402 33.6005 17.8081C33.5099 17.9009 33.3996 17.9721 33.2777 18.0164C33.1558 18.0607 33.0255 18.077 32.8965 18.0641Z" fill="white"/>
<path d="M31.8877 21.0713H26.3677C26.13 21.0713 25.9021 20.9769 25.7341 20.8089C25.5661 20.6408 25.4717 20.4129 25.4717 20.1753C25.4717 19.9377 25.5661 19.7098 25.7341 19.5417C25.9021 19.3737 26.13 19.2793 26.3677 19.2793H31.8877C32.1253 19.2793 32.3532 19.3737 32.5212 19.5417C32.6893 19.7098 32.7837 19.9377 32.7837 20.1753C32.7837 20.4129 32.6893 20.6408 32.5212 20.8089C32.3532 20.9769 32.1253 21.0713 31.8877 21.0713V21.0713Z" fill="white"/>
<path d="M29.3751 27.5845C29.2592 27.5859 29.1443 27.5639 29.0371 27.5199C28.9299 27.476 28.8326 27.4109 28.7511 27.3285C28.584 27.1606 28.4902 26.9334 28.4902 26.6965C28.4902 26.4597 28.584 26.2324 28.7511 26.0645L32.2551 22.5445C32.425 22.3812 32.6515 22.29 32.8871 22.29C33.1227 22.29 33.3492 22.3812 33.5191 22.5445C33.6872 22.7151 33.7814 22.945 33.7814 23.1845C33.7814 23.424 33.6872 23.6539 33.5191 23.8245L30.0151 27.3285C29.9311 27.4121 29.8312 27.4778 29.7212 27.5218C29.6112 27.5658 29.4935 27.5871 29.3751 27.5845V27.5845Z" fill="white"/>
<path d="M35.9044 23.6799C37.8396 23.6799 39.4084 22.1111 39.4084 20.1759C39.4084 18.2407 37.8396 16.6719 35.9044 16.6719C33.9692 16.6719 32.4004 18.2407 32.4004 20.1759C32.4004 22.1111 33.9692 23.6799 35.9044 23.6799Z" fill="white"/>
<path d="M35.889 33.0407C33.3608 33.0249 30.894 32.2608 28.7996 30.8447C26.7052 29.4287 25.077 27.4241 24.1205 25.0838C23.1639 22.7436 22.9218 20.1725 23.4247 17.6948C23.9276 15.2172 25.153 12.9439 26.9462 11.1618C28.7395 9.37969 31.0203 8.16853 33.5011 7.68108C35.9818 7.19364 38.5514 7.45175 40.8856 8.42286C43.2198 9.39397 45.2142 11.0346 46.6172 13.1378C48.0202 15.2409 48.7689 17.7125 48.7689 20.2407C48.769 21.9283 48.4353 23.5994 47.787 25.1576C47.1388 26.7158 46.1888 28.1304 44.9917 29.32C43.7946 30.5097 42.3741 31.4509 40.8119 32.0894C39.2497 32.7279 37.5766 33.0512 35.889 33.0407ZM35.889 10.0007C33.8725 10.0007 31.9013 10.5988 30.2249 11.7195C28.5485 12.8401 27.2422 14.4328 26.4712 16.2961C25.7003 18.1593 25.4994 20.2094 25.894 22.1869C26.2885 24.1644 27.2608 25.9804 28.6878 27.4052C30.1148 28.8299 31.9323 29.7993 33.9104 30.1908C35.8885 30.5822 37.9383 30.3781 39.8004 29.6043C41.6624 28.8304 43.2531 27.5216 44.3711 25.8434C45.4891 24.1652 46.0841 22.1931 46.0809 20.1767C46.081 18.839 45.8172 17.5144 45.3048 16.2788C44.7924 15.0431 44.0414 13.9206 43.0948 12.9755C42.1482 12.0304 41.0245 11.2811 39.7881 10.7707C38.5516 10.2602 37.2266 9.99857 35.889 10.0007V10.0007Z" fill="white"/>
<path d="M37.9683 4.70388C37.9683 5.83988 35.9363 8.27188 35.9363 8.27188C35.9363 8.27188 33.9043 5.83988 33.9043 4.70388C33.9043 4.43703 33.9569 4.1728 34.059 3.92626C34.1611 3.67973 34.3108 3.45572 34.4995 3.26703C34.6881 3.07835 34.9121 2.92867 35.1587 2.82655C35.4052 2.72443 35.6694 2.67188 35.9363 2.67188C36.2031 2.67188 36.4674 2.72443 36.7139 2.82655C36.9604 2.92867 37.1845 3.07835 37.3731 3.26703C37.5618 3.45572 37.7115 3.67973 37.8136 3.92626C37.9157 4.1728 37.9683 4.43703 37.9683 4.70388V4.70388Z" fill="white"/>
<path d="M26.2078 7.536C26.8339 8.76529 27.1989 10.1108 27.2798 11.488C25.9026 11.4071 24.5571 11.0421 23.3278 10.416C23.1382 10.2272 22.9877 10.0028 22.885 9.75568C22.7823 9.50857 22.7295 9.2436 22.7295 8.976C22.7295 8.7084 22.7823 8.44344 22.885 8.19632C22.9877 7.94921 23.1382 7.72481 23.3278 7.536C23.7132 7.1607 24.2299 6.95068 24.7678 6.95068C25.3058 6.95068 25.8224 7.1607 26.2078 7.536Z" fill="white"/>
<path d="M20.4968 18.1118C21.6168 18.1118 24.0488 20.1438 24.0488 20.1438C24.0488 20.1438 21.6168 22.1758 20.4968 22.1758C19.9579 22.1758 19.4411 21.9617 19.06 21.5807C18.6789 21.1996 18.4648 20.6827 18.4648 20.1438C18.4648 19.6049 18.6789 19.0881 19.06 18.707C19.4411 18.3259 19.9579 18.1118 20.4968 18.1118Z" fill="white"/>
<path d="M23.3273 29.8718C24.5546 29.2404 25.9012 28.8751 27.2793 28.7998C27.2003 30.1773 26.8352 31.5232 26.2073 32.7518C25.8233 33.1125 25.3141 33.31 24.7872 33.3025C24.2603 33.295 23.757 33.0831 23.3833 32.7115C23.0097 32.34 22.795 31.8378 22.7846 31.311C22.7741 30.7842 22.9687 30.2739 23.3273 29.8878V29.8718Z" fill="white"/>
<path d="M33.9043 35.5676C33.9043 34.4476 35.9363 32.0156 35.9363 32.0156C35.9363 32.0156 37.9683 34.4476 37.9683 35.5676C37.9683 35.8345 37.9157 36.0987 37.8136 36.3452C37.7115 36.5918 37.5618 36.8158 37.3731 37.0045C37.1845 37.1932 36.9604 37.3428 36.7139 37.4449C36.4674 37.5471 36.2031 37.5996 35.9363 37.5996C35.6694 37.5996 35.4052 37.5471 35.1587 37.4449C34.9121 37.3428 34.6881 37.1932 34.4995 37.0045C34.3108 36.8158 34.1611 36.5918 34.059 36.3452C33.9569 36.0987 33.9043 35.8345 33.9043 35.5676Z" fill="white"/>
<path d="M45.6642 32.7358C45.0276 31.5154 44.6568 30.1739 44.5762 28.7998C45.9557 28.8782 47.3029 29.249 48.5282 29.8878C48.858 30.2768 49.0295 30.7757 49.0086 31.2854C48.9877 31.795 48.7758 32.2781 48.4152 32.6388C48.0545 32.9995 47.5714 33.2113 47.0617 33.2322C46.5521 33.2532 46.0532 33.0817 45.6642 32.7518V32.7358Z" fill="white"/>
<path d="M51.3596 22.1758C50.2396 22.1758 47.8076 20.1438 47.8076 20.1438C47.8076 20.1438 50.2396 18.1118 51.3596 18.1118C51.8985 18.1118 52.4154 18.3259 52.7965 18.707C53.1775 19.0881 53.3916 19.6049 53.3916 20.1438C53.3916 20.6827 53.1775 21.1996 52.7965 21.5807C52.4154 21.9617 51.8985 22.1758 51.3596 22.1758V22.1758Z" fill="white"/>
<path d="M48.5282 10.4159C47.2996 11.0437 45.9536 11.4088 44.5762 11.4879C44.6564 10.1086 45.0272 8.76187 45.6642 7.53587C45.8509 7.33712 46.0756 7.17797 46.3251 7.0679C46.5746 6.95784 46.8437 6.89912 47.1163 6.89523C47.389 6.89134 47.6596 6.94236 47.9121 7.04526C48.1646 7.14817 48.3939 7.30084 48.5861 7.49419C48.7784 7.68754 48.9298 7.9176 49.0313 8.17069C49.1328 8.42378 49.1823 8.6947 49.1769 8.96733C49.1715 9.23995 49.1113 9.5087 48.9998 9.75756C48.8884 10.0064 48.728 10.2303 48.5282 10.4159V10.4159Z" fill="white"/>
</svg>
