<svg xmlns="http://www.w3.org/2000/svg" viewBox="0 0 61.56 57.64"><defs><style>.cls-1{fill:none;stroke-width:3px;}.cls-1,.cls-2{stroke:#fff;stroke-linecap:round;stroke-linejoin:round;}.cls-2{fill:#fff;}</style></defs><g id="Layer_2" data-name="Layer 2"><g id="Layer_1-2" data-name="Layer 1"><path class="cls-1" d="M51.33,18.33a11.19,11.19,0,0,1-2.46,22.11H12.69C6.51,40.44,1.5,36,1.5,29.86A11.2,11.2,0,0,1,10.09,19,9,9,0,0,1,18.63,7.09,9,9,0,0,1,25,9.69h0a14,14,0,0,1,26.66,5.76,25.5,25.5,0,0,1-.3,2.88Z"/><path class="cls-2" d="M19.51,48.23a1.91,1.91,0,1,1-1.91-1.91A1.92,1.92,0,0,1,19.51,48.23Z"/><path class="cls-2" d="M33.31,48.23a1.91,1.91,0,1,1-1.91-1.91A1.92,1.92,0,0,1,33.31,48.23Z"/><path class="cls-2" d="M47.1,48.23a1.91,1.91,0,1,1-1.9-1.91A1.91,1.91,0,0,1,47.1,48.23Z"/><path class="cls-2" d="M26.51,55.23a1.91,1.91,0,1,1-1.91-1.91A1.92,1.92,0,0,1,26.51,55.23Z"/><path class="cls-2" d="M40.31,55.23a1.91,1.91,0,1,1-1.91-1.91A1.92,1.92,0,0,1,40.31,55.23Z"/></g></g></svg>