<svg width="52" height="52" viewBox="0 0 52 52" fill="none" xmlns="http://www.w3.org/2000/svg">
<path d="M48.325 20.5925C48.1997 20.5894 48.0754 20.57 47.9552 20.5347C47.7556 20.4913 47.5668 20.4083 47.3999 20.2905C47.233 20.1727 47.0915 20.0226 46.9837 19.8491C46.8759 19.6756 46.8041 19.4822 46.7725 19.2804C46.7409 19.0786 46.7501 18.8725 46.7996 18.6743C47.5355 15.7769 47.176 12.7099 45.7898 10.0613C44.4037 7.41275 42.0886 5.3691 39.2885 4.3223C39.0925 4.25555 38.9122 4.14961 38.7584 4.01092C38.6047 3.87222 38.4808 3.70368 38.3943 3.51556C38.3079 3.32745 38.2606 3.12369 38.2554 2.91671C38.2502 2.70973 38.2872 2.50385 38.3641 2.31163C38.5071 1.93009 38.7947 1.62029 39.1646 1.4494C39.5345 1.27851 39.9569 1.26031 40.3401 1.39874C43.8651 2.73695 46.779 5.31799 48.533 8.65563C50.2492 11.9725 50.7009 15.8002 49.8041 19.4254C49.7239 19.7575 49.5345 20.053 49.2663 20.2646C48.9981 20.4763 48.6666 20.5917 48.325 20.5925Z" fill="white"/>
<path d="M39.7054 18.3962C39.5789 18.4132 39.4506 18.4132 39.3241 18.3962C39.1245 18.3528 38.9357 18.2697 38.7688 18.1519C38.6019 18.0341 38.4604 17.884 38.3526 17.7105C38.2448 17.537 38.173 17.3436 38.1414 17.1418C38.1098 16.94 38.119 16.7339 38.1685 16.5357C38.3488 15.7578 38.2549 14.9414 37.9028 14.2246C37.5259 13.5452 36.9318 13.0121 36.2156 12.7109C36.0169 12.6497 35.8327 12.5489 35.6741 12.4144C35.5155 12.28 35.3858 12.1148 35.2929 11.9288C35.2 11.7429 35.1458 11.54 35.1335 11.3324C35.1213 11.1249 35.1513 10.917 35.2217 10.7214C35.2921 10.5258 35.4015 10.3465 35.5432 10.1944C35.6849 10.0422 35.856 9.92046 36.0462 9.83638C36.2363 9.7523 36.4415 9.70766 36.6494 9.70519C36.8573 9.70271 37.0636 9.74244 37.2556 9.82197C38.7145 10.3718 39.9252 11.4307 40.6645 12.8033C41.3608 14.1816 41.5451 15.7623 41.1845 17.2637C41.0977 17.5894 40.9055 17.8771 40.6379 18.082C40.3703 18.2869 40.0424 18.3973 39.7054 18.3962V18.3962Z" fill="white"/>
<path d="M44.0154 19.4938C43.8888 19.5108 43.7606 19.5108 43.634 19.4938C43.4348 19.4477 43.2466 19.3625 43.0805 19.2431C42.9143 19.1238 42.7734 18.9728 42.666 18.7987C42.5586 18.6247 42.4867 18.4311 42.4545 18.229C42.4223 18.027 42.4304 17.8207 42.4785 17.6218C42.9459 15.7858 42.7154 13.8417 41.8316 12.1659C40.9478 10.4901 39.4736 9.20191 37.6945 8.55073C37.4931 8.49069 37.3062 8.39 37.1453 8.25488C36.9843 8.11975 36.8528 7.95306 36.7589 7.76511C36.6649 7.57715 36.6105 7.37193 36.599 7.16212C36.5875 6.9523 36.6191 6.74236 36.6919 6.54525C36.7648 6.34815 36.8772 6.16807 37.0224 6.01615C37.1676 5.86422 37.3423 5.74368 37.5359 5.66197C37.7295 5.58026 37.9378 5.53912 38.1479 5.54108C38.3581 5.54305 38.5655 5.58808 38.7576 5.6734C41.2482 6.58909 43.3115 8.39483 44.5491 10.7422C45.7868 13.0895 46.1112 15.8121 45.4598 18.3845C45.3671 18.6983 45.1774 18.9747 44.9179 19.174C44.6584 19.3733 44.3424 19.4853 44.0154 19.4938V19.4938Z" fill="white"/>
<path d="M20.9735 23.2051L4.99219 28.798L8.40108 38.4584C9.65313 38.1281 10.9426 37.9611 12.2375 37.9615C15.3529 37.9209 18.3934 38.9168 20.8811 40.7926C22.2744 41.8002 23.9575 42.3275 25.6766 42.2949C27.3924 42.3292 29.0724 41.8016 30.4606 40.7926C31.3356 40.1162 32.2951 39.5568 33.3149 39.1286L36.978 28.798L20.9735 23.2051ZM33.1993 31.086C33.0317 31.5564 32.6853 31.9417 32.2352 32.1581C31.7851 32.3745 31.2678 32.4045 30.7957 32.2415L21.5513 29.0175C21.1489 28.8669 20.7057 28.8669 20.3033 29.0175L11.0589 32.2415C10.5869 32.407 10.0685 32.3782 9.61775 32.1615C9.167 31.9448 8.82079 31.5579 8.6553 31.086C8.4898 30.614 8.51858 30.0956 8.73528 29.6449C8.95199 29.1941 9.33889 28.8479 9.81085 28.6824L20.2109 25.0309C20.6154 24.8926 21.0543 24.8926 21.4589 25.0309L31.8589 28.6824C32.1084 28.746 32.3424 28.8598 32.5466 29.0168C32.7507 29.1739 32.9207 29.3709 33.0461 29.5958C33.1716 29.8208 33.2499 30.0689 33.2762 30.3251C33.3025 30.5813 33.2764 30.8402 33.1993 31.086V31.086Z" fill="white"/>
<path d="M25.6765 43.2167C23.7525 43.2459 21.8709 42.6498 20.3147 41.518C17.9852 39.767 15.1397 38.8402 12.2258 38.8833C11.0092 38.8826 9.79757 39.038 8.6205 39.3456C8.50669 39.3836 8.3865 39.3988 8.26681 39.3903C8.14711 39.3819 8.03026 39.3499 7.92294 39.2962C7.81561 39.2426 7.71992 39.1683 7.64133 39.0776C7.56275 38.9869 7.50281 38.8817 7.46494 38.7678L4.12539 29.1073C4.04806 28.879 4.06419 28.6293 4.17027 28.4128C4.27635 28.1963 4.46377 28.0306 4.69161 27.9518L20.6729 22.3589C20.8672 22.2892 21.0796 22.2892 21.2738 22.3589L37.2552 27.9518C37.483 28.0306 37.6704 28.1963 37.7765 28.4128C37.8826 28.6293 37.8987 28.879 37.8214 29.1073L34.1814 39.4265C34.0897 39.6672 33.9071 39.8622 33.6729 39.9696C32.7281 40.37 31.8387 40.8905 31.0267 41.518C29.4741 42.6482 27.5967 43.2442 25.6765 43.2167V43.2167ZM12.2374 37.0345C15.5694 36.9904 18.8214 38.0554 21.4818 40.062C22.7119 40.9472 24.196 41.4094 25.7112 41.3793C27.2231 41.412 28.7043 40.9494 29.9289 40.062C30.7571 39.421 31.6567 38.8781 32.6098 38.4442L35.8223 29.3616L33.5112 28.5527C33.8548 28.928 34.0909 29.3891 34.1946 29.8873C34.2983 30.3855 34.2658 30.9025 34.1005 31.3838C33.8542 32.0848 33.3401 32.6596 32.6709 32.9823C32.0016 33.3051 31.2317 33.3494 30.5298 33.1056L21.2854 29.8816C21.0832 29.812 20.8636 29.812 20.6614 29.8816L11.4169 33.1056C11.0697 33.2259 10.7022 33.2766 10.3354 33.2548C9.96859 33.2329 9.60967 33.1391 9.27916 32.9785C8.94536 32.8227 8.6464 32.6012 8.4002 32.3272C8.15399 32.0532 7.96559 31.7323 7.84628 31.3838C7.72418 31.0373 7.67155 30.6702 7.69138 30.3034C7.7112 29.9366 7.8031 29.5773 7.96183 29.246C8.08597 28.997 8.24556 28.7674 8.43561 28.5642L6.1245 29.3616L8.94405 37.3696C10.0275 37.1455 11.131 37.0333 12.2374 37.0345V37.0345ZM20.9734 25.8371C20.8669 25.8385 20.7613 25.858 20.6614 25.8949L10.2614 29.558C10.0242 29.6432 9.82945 29.8172 9.71828 30.0433C9.66695 30.1578 9.64041 30.2819 9.64041 30.4073C9.64041 30.5328 9.66695 30.6569 9.71828 30.7713C9.7586 30.8912 9.82224 31.002 9.90554 31.0972C9.98883 31.1923 10.0901 31.2701 10.2036 31.326C10.3188 31.3746 10.4426 31.3997 10.5676 31.3997C10.6926 31.3997 10.8164 31.3746 10.9316 31.326L20.1761 28.102C20.7748 27.8942 21.4262 27.8942 22.0249 28.102L31.2694 31.326C31.3846 31.3746 31.5083 31.3997 31.6334 31.3997C31.7584 31.3997 31.8822 31.3746 31.9974 31.326C32.1109 31.2701 32.2122 31.1923 32.2955 31.0972C32.3788 31.002 32.4424 30.8912 32.4827 30.7713V30.7713C32.5262 30.6531 32.5454 30.5274 32.5391 30.4016C32.5328 30.2758 32.5012 30.1526 32.4462 30.0393C32.3912 29.926 32.3138 29.825 32.2189 29.7423C32.1239 29.6596 32.0132 29.5969 31.8934 29.558L21.4934 25.8949C21.3291 25.8266 21.1487 25.8066 20.9734 25.8371V25.8371Z" fill="white"/>
<path d="M32.2511 13.1738H9.69465L9.30176 22.9383L20.9729 18.8476L32.644 22.9383L32.2511 13.1738ZM27.9755 18.1889H14.2244C13.7518 18.1518 13.3106 17.9379 12.9888 17.5899C12.667 17.2418 12.4883 16.7852 12.4883 16.3112C12.4883 15.8371 12.667 15.3805 12.9888 15.0325C13.3106 14.6844 13.7518 14.4705 14.2244 14.4334H27.9755C28.4481 14.4705 28.8893 14.6844 29.2111 15.0325C29.5329 15.3805 29.7117 15.8371 29.7117 16.3112C29.7117 16.7852 29.5329 17.2418 29.2111 17.5899C28.8893 17.9379 28.4481 18.1518 27.9755 18.1889V18.1889Z" fill="white"/>
<path d="M32.6444 23.852C32.5411 23.8688 32.4358 23.8688 32.3324 23.852L20.9733 19.8769L9.60266 23.8058C9.46031 23.8549 9.30813 23.8684 9.15935 23.8453C9.01057 23.8222 8.8697 23.763 8.74897 23.6731C8.62824 23.5831 8.53132 23.465 8.46663 23.329C8.40194 23.1931 8.37143 23.0433 8.37777 22.8929L8.77066 13.14C8.77969 12.902 8.88142 12.6769 9.05414 12.5128C9.22687 12.3487 9.45689 12.2586 9.69511 12.2618H32.2515C32.4898 12.2586 32.7198 12.3487 32.8925 12.5128C33.0652 12.6769 33.167 12.902 33.176 13.14L33.5111 22.8929C33.5196 23.0443 33.4902 23.1954 33.4256 23.3326C33.3611 23.4698 33.2634 23.5887 33.1413 23.6787C32.996 23.7834 32.8234 23.8436 32.6444 23.852V23.852ZM24.5555 19.1142L31.7084 21.6218L31.408 14.0991H29.6862C30.1503 14.4552 30.4911 14.9479 30.6606 15.5078C30.83 16.0678 30.8196 16.6667 30.6308 17.2204C30.442 17.7741 30.0843 18.2546 29.608 18.5944C29.1318 18.9341 28.561 19.1159 27.976 19.1142H24.5555ZM10.5733 14.0991L10.2729 21.6218L17.4258 19.1142H14.2249C13.6399 19.1159 13.0691 18.9341 12.5929 18.5944C12.1166 18.2546 11.7589 17.7741 11.5701 17.2204C11.3813 16.6667 11.3709 16.0678 11.5403 15.5078C11.7098 14.9479 12.0505 14.4552 12.5147 14.0991H10.5733ZM14.2249 15.3587C13.9705 15.3587 13.7266 15.4597 13.5467 15.6396C13.3668 15.8195 13.2658 16.0634 13.2658 16.3178C13.2658 16.5722 13.3668 16.8161 13.5467 16.996C13.7266 17.1759 13.9705 17.2769 14.2249 17.2769H27.976C28.2304 17.2769 28.4743 17.1759 28.6542 16.996C28.8341 16.8161 28.9351 16.5722 28.9351 16.3178C28.9351 16.0634 28.8341 15.8195 28.6542 15.6396C28.4743 15.4597 28.2304 15.3587 27.976 15.3587H14.2249Z" fill="white"/>
<path d="M22.857 14.1096H19.0898V8.40115C19.0989 8.00877 19.2612 7.63553 19.5419 7.36126C19.8227 7.08699 20.1996 6.93349 20.5921 6.93359H21.3547C21.7512 6.93358 22.1315 7.09026 22.4129 7.36949C22.6943 7.64872 22.8539 8.02785 22.857 8.42426V14.1096Z" fill="white"/>
<path d="M22.8559 15.0228H19.0887C18.9679 15.0228 18.8482 14.9988 18.7367 14.9522C18.6252 14.9056 18.524 14.8373 18.4391 14.7513C18.3542 14.6653 18.2872 14.5633 18.242 14.4512C18.1968 14.3391 18.1743 14.2192 18.1759 14.0983V8.40144C18.1759 7.76091 18.4303 7.14662 18.8832 6.6937C19.3361 6.24078 19.9504 5.98633 20.591 5.98633H21.3536C21.9942 5.98633 22.6085 6.24078 23.0614 6.6937C23.5143 7.14662 23.7687 7.76091 23.7687 8.40144V14.1099C23.7687 14.352 23.6726 14.5842 23.5014 14.7554C23.3302 14.9266 23.098 15.0228 22.8559 15.0228V15.0228ZM20.0132 13.1739H21.9545V8.40144C21.9545 8.3261 21.9395 8.25151 21.9103 8.18205C21.8812 8.11259 21.8384 8.04965 21.7846 7.99692C21.7308 7.94419 21.667 7.90272 21.597 7.87496C21.5269 7.84719 21.4521 7.83368 21.3767 7.83522H20.6141C20.5388 7.83368 20.4639 7.84719 20.3938 7.87496C20.3238 7.90272 20.26 7.94419 20.2062 7.99692C20.1524 8.04965 20.1097 8.11259 20.0805 8.18205C20.0513 8.25151 20.0363 8.3261 20.0363 8.40144L20.0132 13.1739Z" fill="white"/>
<path d="M18.9636 48.2213C18.6202 48.224 18.2861 48.1099 18.0161 47.8977C16.3257 46.7045 14.3074 46.0638 12.2383 46.0638C10.1692 46.0638 8.15088 46.7045 6.46053 47.8977C6.13686 48.078 5.75896 48.1353 5.3964 48.059C5.03383 47.9828 4.71102 47.7781 4.48737 47.4828C4.26373 47.1874 4.15432 46.8212 4.17927 46.4515C4.20423 46.0819 4.36188 45.7337 4.6232 45.471C6.84409 43.844 9.52562 42.9668 12.2788 42.9668C15.0319 42.9668 17.7134 43.844 19.9343 45.471C20.1867 45.6672 20.3716 45.9373 20.4633 46.2435C20.555 46.5497 20.5489 46.8769 20.4459 47.1796C20.343 47.4822 20.1482 47.7452 19.8887 47.9319C19.6292 48.1186 19.318 48.2197 18.9983 48.2213H18.9636Z" fill="white"/>
<path d="M25.6768 50.4069C22.9159 50.4415 20.2215 49.5596 18.0154 47.8993C17.7096 47.6442 17.5147 47.2804 17.4718 46.8844C17.429 46.4884 17.5415 46.0913 17.7857 45.7767C18.0299 45.462 18.3867 45.2545 18.7809 45.1978C19.1752 45.1411 19.576 45.2396 19.899 45.4726C21.5874 46.6707 23.6065 47.3143 25.6768 47.3143C27.7471 47.3143 29.7661 46.6707 31.4545 45.4726C31.6139 45.3482 31.7962 45.2564 31.991 45.2024C32.1858 45.1484 32.3894 45.1333 32.59 45.158C32.7907 45.1827 32.9845 45.2466 33.1605 45.3462C33.3364 45.4458 33.491 45.5791 33.6154 45.7384C33.7399 45.8978 33.8317 46.08 33.8857 46.2749C33.9397 46.4697 33.9548 46.6733 33.9301 46.8739C33.9054 47.0746 33.8414 47.2684 33.7418 47.4443C33.6423 47.6203 33.509 47.7749 33.3497 47.8993C31.1396 49.5605 28.4413 50.4423 25.6768 50.4069Z" fill="white"/>
<path d="M4.13655 49.1122C3.79959 49.0993 3.47622 48.976 3.21625 48.7612C2.95629 48.5465 2.77417 48.2522 2.69797 47.9237C2.62176 47.5952 2.6557 47.2508 2.79454 46.9435C2.93339 46.6363 3.16945 46.3832 3.46632 46.2233C3.87298 46.0076 4.25968 45.7562 4.62188 45.4722C4.94487 45.2391 5.34571 45.1406 5.73993 45.1973C6.13415 45.254 6.49096 45.4616 6.73516 45.7762C6.97937 46.0908 7.0919 46.4879 7.04905 46.8839C7.0062 47.2799 6.8113 47.6437 6.50543 47.8988C5.99823 48.293 5.45682 48.641 4.88766 48.9388C4.65573 49.0585 4.39747 49.1181 4.13655 49.1122Z" fill="white"/>
<path d="M32.3556 48.2209C32.0349 48.2218 31.722 48.1224 31.4607 47.9366C31.1994 47.7507 31.0027 47.4878 30.8983 47.1847C30.7938 46.8815 30.7868 46.5533 30.8782 46.2459C30.9696 45.9386 31.1549 45.6675 31.408 45.4707C33.5914 43.8372 36.2502 42.9645 38.9769 42.9862V42.9862C39.1892 42.9678 39.4029 42.9937 39.6047 43.0622C39.8064 43.1308 39.9916 43.2405 40.1487 43.3845C40.3057 43.5285 40.4311 43.7035 40.5169 43.8986C40.6027 44.0936 40.6469 44.3043 40.6469 44.5174C40.6469 44.7304 40.6027 44.9411 40.5169 45.1361C40.4311 45.3312 40.3057 45.5062 40.1487 45.6502C39.9916 45.7942 39.8064 45.9039 39.6047 45.9725C39.4029 46.0411 39.1892 46.0669 38.9769 46.0485C36.9262 46.0207 34.9236 46.6706 33.28 47.8974C33.0154 48.1031 32.6908 48.2168 32.3556 48.2209V48.2209Z" fill="white"/>
</svg>
