<svg width="72" height="72" viewBox="0 0 72 72" fill="none" xmlns="http://www.w3.org/2000/svg">
<path d="M63.7432 12H8.25524C6.55785 12 4.92998 12.6743 3.72974 13.8745C2.52952 15.0748 1.85522 16.7025 1.85522 18.3999V48.272C1.85522 49.9693 2.52952 51.5972 3.72974 52.7975C4.92998 53.9977 6.55785 54.672 8.25524 54.672H32.1593L26.4152 61.872C25.6152 62.88 26.4152 64.2239 28.0153 64.2239H44.1752C45.6312 64.2239 46.5273 62.88 45.7752 61.872L39.9992 54.656H63.7432C65.4406 54.656 67.0685 53.9816 68.2687 52.7815C69.469 51.5813 70.1433 49.9534 70.1433 48.256V18.384C70.139 16.6894 69.4629 15.0656 68.2631 13.8688C67.0634 12.6721 65.4378 12 63.7432 12ZM64.5112 45.8241C64.5112 46.6727 64.1741 47.4866 63.574 48.0868C62.9739 48.6869 62.1599 49.024 61.3112 49.024H10.7032C9.85454 49.024 9.0406 48.6869 8.44048 48.0868C7.84038 47.4866 7.50322 46.6727 7.50322 45.8241V20.8C7.50322 19.9513 7.84038 19.1374 8.44048 18.5373C9.0406 17.9372 9.85454 17.6 10.7032 17.6H61.2952C62.144 17.6 62.9578 17.9372 63.5579 18.5373C64.158 19.1374 64.4952 19.9513 64.4952 20.8L64.5112 45.8241Z" fill="white"/>
<path d="M40.17 37L37.58 39.59L39 41L43 37L39 33L37.58 34.41L40.17 37ZM31.83 37L34.42 34.41L33 33L29 37L33 41L34.42 39.59L31.83 37Z" fill="white"/>
<path d="M29 27C29.5523 27 30 26.5523 30 26C30 25.4477 29.5523 25 29 25C28.4477 25 28 25.4477 28 26C28 26.5523 28.4477 27 29 27Z" fill="white"/>
<path d="M26 27C26.5523 27 27 26.5523 27 26C27 25.4477 26.5523 25 26 25C25.4477 25 25 25.4477 25 26C25 26.5523 25.4477 27 26 27Z" fill="white"/>
<path d="M48 22H24C22.897 22 22 22.897 22 24V44C22 45.103 22.897 46 24 46H48C49.103 46 50 45.103 50 44V24C50 22.897 49.103 22 48 22ZM48 24V28H24V24H48ZM24 44V30H48V44H24Z" fill="white"/>
</svg>
